#!OML:ASF F:\VICON\USERDATA\INSTALL\Justin_Nancy\Justin_Nancy.ASF
:FULLY-SPECIFIED
:DEGREES
174
root 0.907673 17.4825 -2.75664 -3.4332 -1.90324 -3.70938
lowerback 7.06807 1.00975 2.90466
upperback 1.13652 1.64535 2.69021
thorax -2.78649 0.801152 0.992163
lowerneck -16.1408 -3.23165 -10.036
upperneck 22.0849 -2.71063 3.64057
head 9.89052 -1.68412 2.59047
rclavicle 3.21783e-015 -5.96354e-015
rhumerus -24.2024 -9.44396 -79.489
rradius 31.5476
rwrist 5.44405
rhand -18.2259 14.0026
rfingers 7.12502
rthumb 8.05228 -15.824
lclavicle 3.21783e-015 -5.96354e-015
lhumerus -34.277 19.5262 80.4858
lradius 24.2714
lwrist -11.2913
lhand -16.5225 27.3001
lfingers 7.12502
lthumb 9.69608 57.0569
rfemur -2.92662 7.3247 30.5835
rtibia 24.6224
rfoot -12.2864 -8.67309
rtoes 3.15499
lfemur -27.0327 -0.213127 -14.6701
ltibia 44.0091
lfoot -5.69913 6.58948
ltoes 1.25584
175
root 0.909819 17.4717 -2.64403 -3.24109 -2.06718 -3.56876
lowerback 7.14478 1.07044 2.74793
upperback 0.828014 1.72798 2.61694
thorax -3.15066 0.838958 0.99208
lowerneck -15.6452 -3.10307 -10.0195
upperneck 22.1955 -2.59308 3.64432
head 9.82718 -1.63454 2.6094
rclavicle 4.38569e-015 9.93923e-015
rhumerus -24.4674 -8.99428 -79.6256
rradius 32.2577
rwrist 4.99868
rhand -17.6883 13.4771
rfingers 7.12502
rthumb 8.57112 -16.3289
lclavicle 4.38569e-015 9.93923e-015
lhumerus -35.0258 19.4911 80.2055
lradius 24.0436
lwrist -11.3977
lhand -15.6304 28.7047
lfingers 7.12502
lthumb 10.5567 58.4195
rfemur -2.67679 7.30063 30.4295
rtibia 24.6016
rfoot -12.7122 -8.57855
rtoes 3.02839
lfemur -26.9043 -0.993474 -14.7054
ltibia 41.3697
lfoot -5.3906 7.37946
ltoes 1.64636
176
root 0.914248 17.4618 -2.52847 -2.95549 -2.26586 -3.71143
lowerback 6.91033 1.13747 2.84928
upperback 0.791097 1.81761 2.68534
thorax -3.05675 0.88343 1.00193
lowerneck -15.5959 -3.06417 -10.0502
upperneck 22.0981 -2.50716 3.53275
head 9.77675 -1.60812 2.58553
rclavicle -1.33683e-014 -3.18055e-015
rhumerus -24.2124 -8.38412 -79.7264
rradius 32.9148
rwrist 4.37999
rhand -17.5891 12.8305
rfingers 7.12502
rthumb 8.66687 -16.9716
lclavicle -1.33683e-014 -3.18055e-015
lhumerus -34.9427 20.046 79.9964
lradius 23.2684
lwrist -12.2193
lhand -15.3015 28.0539
lfingers 7.12502
lthumb 10.874 57.7523
rfemur -2.50271 7.31242 30.579
rtibia 24.5545
rfoot -13.016 -8.52411
rtoes 2.48526
lfemur -26.8801 -1.69937 -14.4108
ltibia 38.7332
lfoot -5.54925 8.01837
ltoes -1.96366
177
root 0.916001 17.4518 -2.41432 -2.8335 -2.52453 -3.97476
lowerback 6.741 1.25604 3.09451
upperback 0.943058 1.98123 2.76948
thorax -2.79928 0.965685 0.942217
lowerneck -15.9391 -3.14878 -10.0056
upperneck 22.0648 -2.55338 3.35433
head 9.83112 -1.6424 2.50615
rclavicle 1.78409e-014 2.78299e-014
rhumerus -23.6949 -8.19561 -79.8245
rradius 33.4396
rwrist 4.105
rhand -17.9179 12.8292
rfingers 7.12502
rthumb 8.3496 -16.9858
lclavicle 1.78409e-014 2.78299e-014
lhumerus -34.5021 20.4672 79.9741
lradius 22.3233
lwrist -12.6598
lhand -14.9007 28.1581
lfingers 7.12502
lthumb 11.2605 57.8359
rfemur -2.13868 7.3901 30.9012
rtibia 24.4477
rfoot -13.2072 -8.47559
rtoes 2.62927
lfemur -26.7114 -2.44076 -13.899
ltibia 36.1363
lfoot -5.24364 8.33565
ltoes -3.08727
178
root 0.919887 17.4521 -2.29238 -2.70521 -2.68212 -3.80942
lowerback 6.50086 1.32208 2.91457
upperback 0.965756 2.04275 2.75023
thorax -2.64683 0.999824 1.02355
lowerneck -16.1206 -3.15867 -10.1006
upperneck 22.2577 -2.51445 3.32606
head 9.93318 -1.63861 2.51796
rclavicle -2.10091e-014 -3.10104e-014
rhumerus -23.4824 -7.77691 -79.8983
rradius 34.0032
rwrist 3.67105
rhand -18.3118 13.7605
rfingers 7.12502
rthumb 7.9694 -16.0693
lclavicle -2.10091e-014 -3.10104e-014
lhumerus -34.7824 20.539 79.9726
lradius 22.1255
lwrist -12.5574
lhand -14.5249 28.3576
lfingers 7.12502
lthumb 11.6229 58.0153
rfemur -1.7269 7.29566 30.6894
rtibia 24.2411
rfoot -13.5235 -8.28172
rtoes 3.13638
lfemur -26.4577 -3.33547 -13.863
ltibia 33.6206
lfoot -5.04566 8.60751
ltoes -3.46985
179
root 0.923253 17.453 -2.17083 -2.50621 -2.67507 -3.69371
lowerback 6.11142 1.31172 2.80275
upperback 1.02895 1.99921 2.72036
thorax -2.36675 0.982115 1.06915
lowerneck -16.4493 -3.12201 -10.1443
upperneck 22.5199 -2.41477 3.32933
head 10.0826 -1.59954 2.54097
rclavicle 2.5432e-014 1.98785e-014
rhumerus -23.2204 -7.39438 -80.0114
rradius 34.6341
rwrist 3.37293
rhand -18.5823 14.2534
rfingers 7.12502
rthumb 7.70833 -15.5861
lclavicle 2.5432e-014 1.98785e-014
lhumerus -35.1279 20.4852 80.0007
lradius 22.4072
lwrist -12.5863
lhand -14.7221 27.4065
lfingers 7.12502
lthumb 11.4327 57.0748
rfemur -1.36954 7.21862 30.5357
rtibia 24.0053
rfoot -13.9099 -8.23994
rtoes 3.25397
lfemur -26.4011 -4.09683 -13.8156
ltibia 31.2176
lfoot -4.9133 8.66002
ltoes -4.28384
180
root 0.926611 17.4488 -2.04648 -2.34412 -2.70016 -3.69713
lowerback 5.80225 1.32565 2.82876
upperback 1.08154 2.00192 2.69857
thorax -2.13806 0.985619 1.04026
lowerneck -16.7073 -3.12947 -10.0272
upperneck 22.59 -2.39959 3.21731
head 10.1525 -1.59528 2.48293
rclavicle -2.07978e-014 -4.77083e-015
rhumerus -22.9459 -7.08288 -80.1581
rradius 35.2586
rwrist 2.93856
rhand -18.7134 14.0371
rfingers 7.12502
rthumb 7.58176 -15.807
lclavicle -2.07978e-014 -4.77083e-015
lhumerus -35.1776 20.6165 79.8897
lradius 22.1265
lwrist -12.9953
lhand -15.522 25.244
lfingers 7.12502
lthumb 10.6613 54.9535
rfemur -0.969264 7.15285 30.5241
rtibia 23.8265
rfoot -14.2279 -8.30893
rtoes 2.59757
lfemur -26.3702 -4.77884 -13.6395
ltibia 28.9752
lfoot -4.94229 8.67278
ltoes -4.45744
181
root 0.932302 17.4406 -1.92134 -2.19579 -2.7354 -3.69157
lowerback 5.73882 1.35391 2.82346
upperback 0.906369 2.04292 2.67828
thorax -2.28258 1.00403 1.01846
lowerneck -16.5549 -3.06726 -9.94997
upperneck 22.5976 -2.35169 3.21807
head 10.121 -1.56774 2.47813
rclavicle 3.67379e-014 2.38542e-014
rhumerus -22.9629 -6.73911 -80.2331
rradius 35.7176
rwrist 2.45595
rhand -18.5624 13.7966
rfingers 7.12502
rthumb 7.72754 -16.0422
lclavicle 3.67379e-014 2.38542e-014
lhumerus -35.3868 21.1026 79.4864
lradius 21.3952
lwrist -13.8645
lhand -15.4383 24.7244
lfingers 7.12502
lthumb 10.742 54.4298
rfemur -0.558667 6.92312 30.4735
rtibia 23.6618
rfoot -14.587 -8.19231
rtoes 2.17817
lfemur -26.3483 -5.46555 -13.476
ltibia 27.0339
lfoot -5.14699 8.66313
ltoes -4.5038
182
root 0.93998 17.4308 -1.79909 -1.98925 -2.76198 -3.61402
lowerback 5.60447 1.37599 2.72692
upperback 0.74812 2.06631 2.66582
thorax -2.37353 1.01513 1.05907
lowerneck -16.1855 -2.92758 -9.95407
upperneck 22.465 -2.21115 3.27764
head 9.99317 -1.49575 2.51993
rclavicle 3.15571e-014 -1.39149e-014
rhumerus -22.8441 -6.33649 -80.3088
rradius 36.0315
rwrist 2.01159
rhand -18.5811 13.8946
rfingers 7.12502
rthumb 7.70948 -15.9448
lclavicle 3.15571e-014 -1.39149e-014
lhumerus -35.6523 20.8787 79.5639
lradius 21.2119
lwrist -13.7735
lhand -14.2116 26.2224
lfingers 7.12502
lthumb 11.9251 55.8627
rfemur -0.229996 6.80463 30.3334
rtibia 23.4589
rfoot -14.9856 -8.10287
rtoes 2.49026
lfemur -26.526 -6.18626 -13.3964
ltibia 25.4396
lfoot -5.50353 8.68246
ltoes -5.48269
183
root 0.945707 17.4204 -1.68066 -1.74846 -2.84146 -3.79419
lowerback 5.31444 1.4005 2.84196
upperback 0.763545 2.09311 2.73748
thorax -2.19395 1.02953 1.07443
lowerneck -15.982 -2.88784 -9.98137
upperneck 22.184 -2.17242 3.28728
head 9.852 -1.47383 2.53083
rclavicle -1.49089e-016 2.54444e-014
rhumerus -22.5268 -6.0384 -80.417
rradius 36.4767
rwrist 1.65573
rhand -18.4746 13.9762
rfingers 7.12502
rthumb 7.81228 -15.8594
lclavicle -1.49089e-016 2.54444e-014
lhumerus -35.6962 20.958 79.6004
lradius 21.0752
lwrist -13.9886
lhand -13.6834 26.9479
lfingers 7.12502
lthumb 12.4344 56.5581
rfemur 0.0643542 6.89465 30.5339
rtibia 23.2433
rfoot -15.2176 -8.24134
rtoes 2.41436
lfemur -26.9031 -6.77246 -13.0062
ltibia 24.2205
lfoot -6.14287 8.47979
ltoes -5.27885
184
root 0.947468 17.4126 -1.56229 -1.52084 -2.88615 -3.98353
lowerback 5.15025 1.42822 2.99201
upperback 0.642451 2.13594 2.75642
thorax -2.22209 1.04893 1.00984
lowerneck -16.0923 -2.94042 -9.88754
upperneck 22.4283 -2.23041 3.16952
head 9.9622 -1.5112 2.46784
rclavicle 6.7711e-015 5.1684e-015
rhumerus -22.6686 -6.02287 -80.5282
rradius 37.0922
rwrist 1.69835
rhand -18.5787 13.9011
rfingers 7.12502
rthumb 7.71178 -15.9382
lclavicle 6.7711e-015 5.1684e-015
lhumerus -35.905 21.3711 79.2341
lradius 20.6272
lwrist -14.7828
lhand -13.6771 26.988
lfingers 7.12502
lthumb 12.4404 56.5978
rfemur 0.386679 7.091 30.7818
rtibia 23.0591
rfoot -15.4326 -8.45327
rtoes 2.24841
lfemur -27.2779 -7.25211 -12.6032
ltibia 23.2821
lfoot -7.28136 8.19694
ltoes -3.71933
185
root 0.949706 17.3967 -1.45007 -1.35774 -2.7108 -4.24238
lowerback 5.19514 1.37433 3.26028
upperback 0.48859 2.08908 2.78685
thorax -2.39769 1.02049 0.891387
lowerneck -16.4589 -2.99712 -9.82588
upperneck 22.9182 -2.27858 3.13533
head 10.2101 -1.54105 2.44233
rclavicle 3.64024e-015 2.0276e-014
rhumerus -22.8431 -5.92878 -80.6183
rradius 37.6971
rwrist 1.54211
rhand -18.3341 13.7999
rfingers 7.12502
rthumb 7.94786 -16.0307
lclavicle 3.64024e-015 2.0276e-014
lhumerus -36.1108 21.4218 79.0462
lradius 20.2528
lwrist -15.1753
lhand -13.5219 27.2402
lfingers 7.12502
lthumb 12.5901 56.8409
rfemur 0.738407 7.11977 31.1226
rtibia 22.8695
rfoot -15.6282 -8.76857
rtoes 1.25988
lfemur -27.5954 -7.3243 -12.3121
ltibia 22.5704
lfoot -8.37274 7.48644
ltoes -4.08681
186
root 0.955567 17.3817 -1.3371 -1.09158 -2.47844 -4.23297
lowerback 4.99966 1.30946 3.23031
upperback 0.376801 1.99551 2.78209
thorax -2.40495 0.973614 0.913184
lowerneck -16.4172 -3.00113 -9.88067
upperneck 23.0068 -2.2925 3.20685
head 10.2367 -1.54621 2.47638
rclavicle 5.71506e-016 2.50469e-014
rhumerus -22.8105 -5.76969 -80.6919
rradius 38.1528
rwrist 1.27198
rhand -18.0584 13.6269
rfingers 7.12502
rthumb 8.214 -16.1934
lclavicle 5.71506e-016 2.50469e-014
lhumerus -36.3234 21.2502 79.0954
lradius 20.1903
lwrist -15.2039
lhand -13.2112 27.0215
lfingers 7.12502
lthumb 12.8896 56.6034
rfemur 0.950966 7.0555 31.121
rtibia 22.6879
rfoot -15.8524 -9.01969
rtoes 0.718607
lfemur -27.9408 -7.53242 -12.3287
ltibia 22.0477
lfoot -9.1425 6.92036
ltoes -7.34507
187
root 0.968784 17.3742 -1.22566 -0.791388 -2.10518 -4.06782
lowerback 4.77353 1.20867 3.08785
upperback 0.237733 1.84699 2.74749
thorax -2.42581 0.900247 0.970768
lowerneck -16.3959 -3.01418 -10.0056
upperneck 23.1301 -2.30203 3.29613
head 10.2811 -1.55409 2.52941
rclavicle 5.86415e-015 3.97569e-015
rhumerus -22.702 -5.73536 -80.6941
rradius 38.4511
rwrist 1.20215
rhand -18.207 13.2484
rfingers 7.12502
rthumb 8.07056 -16.5775
lclavicle 5.86415e-015 3.97569e-015
lhumerus -36.561 21.4933 78.9513
lradius 20.0284
lwrist -15.5407
lhand -13.4271 25.9877
lfingers 7.12502
lthumb 12.6815 55.5827
rfemur 1.12171 6.79749 30.8631
rtibia 22.5142
rfoot -16.1734 -9.09344
rtoes 0.872897
lfemur -28.2636 -7.44016 -12.7175
ltibia 21.7624
lfoot -9.39371 6.0292
ltoes -10.5288
